# xmcd
#
# Track frame offsets: 
#        150
#        24894
#        52887
#        79440
#        95495
#        112792
#        131245
#        148660
#        159702
#
# Disc length: 2482 seconds
#
# Revision: 1
# Processed by: cddbd v1.5.2PL0 Copyright (c) Steve Scherf et al.
# Submitted via: ExactAudioCopyFreeDBPlugin 1.0
#
DISCID=7109b009
DTITLE=George Butts - I Love You So Much
DYEAR=1986
DGENRE=Soul
TTITLE0=I Love You So Much
TTITLE1=Keep That Same Old Feeling
TTITLE2=Europa
TTITLE3=Come Back Again
TTITLE4=Chazzo
TTITLE5=Saving All My Love
TTITLE6=Everybody Got A Groove
TTITLE7=Jackpot Baby
TTITLE8=Europa
EXTD=YEAR: 1988
EXTT0=
EXTT1=
EXTT2=
EXTT3=
EXTT4=
EXTT5=
EXTT6=
EXTT7=
EXTT8=
PLAYORDER=
